<svg width="32" height="32" viewBox="0 0 32 32" fill="none" xmlns="http://www.w3.org/2000/svg">
<path d="M13 27H31" stroke="#343330" stroke-width="2" stroke-linecap="round" stroke-linejoin="round"/>
<path d="M7.5 9.4325L13 11V6C13 5.84154 13.0376 5.68535 13.1098 5.54429C13.182 5.40323 13.2867 5.28135 13.4153 5.1887C13.5438 5.09604 13.6925 5.03526 13.8492 5.01136C14.0058 4.98747 14.1659 5.00114 14.3162 5.05125L15 5.28L18 12.43L26.07 14.68C26.9135 14.9142 27.6568 15.4185 28.1861 16.1158C28.7153 16.813 29.0013 17.6646 29 18.54V23L6.92125 16.8175C6.08086 16.5821 5.3405 16.0784 4.81308 15.3831C4.28566 14.6877 4.00012 13.839 4 12.9663V6C3.99999 5.84154 4.03763 5.68535 4.10983 5.54429C4.18203 5.40323 4.28672 5.28135 4.41527 5.1887C4.54382 5.09604 4.69254 5.03526 4.84919 5.01136C5.00584 4.98747 5.16592 5.00114 5.31625 5.05125L6 5.28L7.5 9.4325Z" stroke="#343330" stroke-width="2" stroke-linecap="round" stroke-linejoin="round"/>
</svg>
