<svg width="32" height="32" viewBox="0 0 32 32" fill="none" xmlns="http://www.w3.org/2000/svg">
<path d="M3 27H21" stroke="#343330" stroke-width="2" stroke-linecap="round" stroke-linejoin="round"/>
<path d="M11 14.5637L7.33125 11C7.20646 10.8877 7.11195 10.7458 7.05643 10.5874C7.00091 10.4289 6.98616 10.2591 7.01356 10.0935C7.04096 9.92783 7.10961 9.77176 7.21319 9.63965C7.31677 9.50754 7.45195 9.40363 7.60625 9.3375L8.5 9L15.6912 11.6462L22.5462 7.5525C23.3691 7.06826 24.3381 6.89433 25.278 7.06214C26.2179 7.22995 27.0668 7.72843 27.6712 8.4675L30 11.455L11.5737 22.455C10.8294 22.8884 9.96503 23.07 9.1092 22.9727C8.25338 22.8754 7.45182 22.5044 6.82375 21.915L2.31625 17.5C2.19502 17.3864 2.10402 17.2443 2.05147 17.0867C1.99892 16.9291 1.98647 16.7608 2.01525 16.5972C2.04404 16.4335 2.11314 16.2796 2.21633 16.1494C2.31951 16.0192 2.45352 15.9167 2.60625 15.8512L3 15.6587L6.97375 17L11 14.5637Z" stroke="#343330" stroke-width="2" stroke-linecap="round" stroke-linejoin="round"/>
</svg>
